<?xml version="1.0" encoding="utf-8"?>
<!-- Generator: Adobe Illustrator 28.1.0, SVG Export Plug-In . SVG Version: 6.00 Build 0)  -->
<svg version="1.1" id="Layer_1" xmlns="http://www.w3.org/2000/svg" xmlns:xlink="http://www.w3.org/1999/xlink" x="0px" y="0px"
	 viewBox="0 0 1695.09 318.04" style="enable-background:new 0 0 1695.09 318.04;" xml:space="preserve">
<style type="text/css">
	.st0{fill:#FFFFFF;}
	.st1{fill:#50A4FF;}
</style>
<g>
	<g>
		<path class="st0" d="M540.02-521v22.32l-32.12,17.97v12.52l31.86-16.73v17.97l-31.86,15.1v7.08l32.12,15.24v22.87l-46.6-23.3
			c-1.47-0.73-2.39-2.23-2.39-3.87v-58.94c0-1.61,0.9-3.09,2.33-3.84L540.02-521z"/>
		<path class="st0" d="M546.01-521v21.23l32.67,16.88v11.98l-32.67,8.17v56.08l18.51-9.26l-0.54-31.03l27.48-8.83
			c1.79-0.58,3.01-2.24,3.01-4.12v-32.37c0-1.59-0.87-3.06-2.28-3.81L546.01-521z"/>
		<polygon class="st0" points="571.02,-419.54 570.23,-442.42 594.46,-431.79 		"/>
	</g>
	<g>
		<g>
			<path class="st0" d="M627.83-427.96v-72.49h46.18v11.29h-33.65v19.05h30.75v11.29h-30.75v19.57h34.17v11.29H627.83z"/>
			<path class="st0" d="M704.87-426.51c-6.63,0-12.08-1.45-16.36-4.35c-4.28-2.9-6.87-7.15-7.77-12.74l10.98-2.8
				c0.48,2.62,1.35,4.7,2.59,6.21c1.24,1.52,2.78,2.59,4.61,3.21c1.83,0.62,3.81,0.93,5.95,0.93c3.24,0,5.68-0.59,7.3-1.76
				c1.62-1.17,2.43-2.66,2.43-4.45c0-1.86-0.78-3.24-2.33-4.14c-1.55-0.9-3.92-1.66-7.09-2.28l-3.21-0.52
				c-3.52-0.69-6.73-1.64-9.63-2.85c-2.9-1.21-5.23-2.86-6.99-4.97c-1.76-2.11-2.64-4.78-2.64-8.02c0-4.97,1.85-8.8,5.54-11.49
				c3.69-2.69,8.54-4.04,14.55-4.04c5.73,0,10.46,1.28,14.19,3.83c3.73,2.55,6.14,5.97,7.25,10.25l-10.98,3.31
				c-0.55-2.9-1.76-4.95-3.62-6.16c-1.86-1.21-4.14-1.81-6.83-1.81c-2.76,0-4.88,0.48-6.37,1.45c-1.49,0.97-2.23,2.35-2.23,4.14
				c0,1.8,0.76,3.14,2.28,4.04c1.52,0.9,3.55,1.55,6.11,1.97l3.21,0.62c3.8,0.69,7.23,1.59,10.3,2.69c3.07,1.1,5.5,2.69,7.3,4.76
				c1.79,2.07,2.69,4.87,2.69,8.39c0,5.32-1.92,9.41-5.75,12.27C716.52-427.94,711.36-426.51,704.87-426.51z"/>
			<path class="st0" d="M755.61-427.13c-3.93,0-7.42-0.88-10.46-2.64c-3.04-1.76-5.38-4.25-7.04-7.46
				c-1.66-3.21-2.49-6.95-2.49-11.23v-30.65h11.8v29.72c0,4.14,1.02,7.21,3.05,9.22c2.04,2,4.92,3,8.65,3
				c4.21,0,7.54-1.38,9.99-4.14c2.45-2.76,3.68-6.73,3.68-11.91v-25.89h11.8v51.15h-11.6v-7.14h-1.76c-0.9,1.86-2.54,3.66-4.92,5.38
				C763.95-427.99,760.38-427.13,755.61-427.13z"/>
			<path class="st0" d="M797.65-427.96v-51.15h11.7v7.14h1.76c0.9-1.93,2.52-3.76,4.87-5.49c2.35-1.73,5.9-2.59,10.67-2.59
				c3.93,0,7.42,0.9,10.46,2.69c3.04,1.8,5.4,4.28,7.09,7.46c1.69,3.18,2.54,6.94,2.54,11.29v30.65h-11.91v-29.72
				c0-4.14-1.02-7.23-3.05-9.27c-2.04-2.04-4.92-3.05-8.65-3.05c-4.21,0-7.52,1.4-9.94,4.19c-2.42,2.8-3.62,6.78-3.62,11.96v25.89
				H797.65z"/>
			<path class="st0" d="M883.19-427.96v-72.49h29.31c4.56,0,8.56,0.9,12.01,2.69c3.45,1.8,6.18,4.33,8.18,7.61
				c2,3.28,3,7.16,3,11.65v1.45c0,4.42-1.02,8.28-3.05,11.6c-2.04,3.31-4.8,5.87-8.28,7.66c-3.49,1.8-7.44,2.69-11.86,2.69h-16.78
				v27.13H883.19z M895.72-466.38h15.53c3.59,0,6.47-0.97,8.65-2.9c2.17-1.93,3.26-4.59,3.26-7.97v-1.04c0-3.38-1.07-6.04-3.21-7.97
				c-2.14-1.93-5.04-2.9-8.7-2.9h-15.53V-466.38z"/>
			<path class="st0" d="M966.86-426.51c-5.11,0-9.68-1.05-13.72-3.16c-4.04-2.11-7.21-5.11-9.53-9.01
				c-2.31-3.9-3.47-8.58-3.47-14.03v-1.66c0-5.45,1.16-10.15,3.47-14.08c2.31-3.93,5.49-6.94,9.53-9.01
				c4.04-2.07,8.61-3.11,13.72-3.11c5.11,0,9.66,1.04,13.67,3.11c4,2.07,7.16,5.07,9.47,9.01c2.31,3.93,3.47,8.63,3.47,14.08v1.66
				c0,5.45-1.16,10.13-3.47,14.03c-2.31,3.9-5.47,6.9-9.47,9.01C976.52-427.56,971.97-426.51,966.86-426.51z M966.86-437.07
				c4.35,0,7.9-1.4,10.67-4.19c2.76-2.8,4.14-6.71,4.14-11.75v-1.04c0-5.04-1.38-8.96-4.14-11.75c-2.76-2.8-6.32-4.19-10.67-4.19
				c-4.35,0-7.91,1.4-10.67,4.19c-2.76,2.8-4.14,6.71-4.14,11.75v1.04c0,5.04,1.38,8.96,4.14,11.75
				C958.95-438.47,962.51-437.07,966.86-437.07z"/>
			<path class="st0" d="M1009.94-485.64c-2.14,0-3.99-0.71-5.54-2.12c-1.55-1.41-2.33-3.3-2.33-5.64c0-2.35,0.78-4.23,2.33-5.64
				c1.55-1.41,3.4-2.12,5.54-2.12c2.28,0,4.16,0.71,5.64,2.12c1.48,1.42,2.23,3.3,2.23,5.64c0,2.35-0.74,4.23-2.23,5.64
				C1014.09-486.34,1012.21-485.64,1009.94-485.64z M1004.03-427.96v-51.15h11.91v51.15H1004.03z"/>
			<path class="st0" d="M1028.99-427.96v-51.15h11.7v7.14h1.76c0.9-1.93,2.52-3.76,4.87-5.49c2.35-1.73,5.9-2.59,10.67-2.59
				c3.93,0,7.42,0.9,10.46,2.69c3.04,1.8,5.4,4.28,7.09,7.46c1.69,3.18,2.54,6.94,2.54,11.29v30.65h-11.91v-29.72
				c0-4.14-1.02-7.23-3.05-9.27c-2.04-2.04-4.92-3.05-8.65-3.05c-4.21,0-7.53,1.4-9.94,4.19c-2.42,2.8-3.62,6.78-3.62,11.96v25.89
				H1028.99z"/>
			<path class="st0" d="M1108.62-427.96c-3.31,0-5.95-0.98-7.92-2.95c-1.97-1.97-2.95-4.64-2.95-8.02v-30.34h-13.36v-9.84h13.36
				v-16.46h11.91v16.46h14.7v9.84h-14.7v28.37c0,2.07,0.97,3.11,2.9,3.11h10.25v9.84H1108.62z"/>
		</g>
		<g>
			<path class="st0" d="M972.18-453.45c-0.62,2.46-2.85,4.29-5.51,4.29c-2.66,0-4.88-1.83-5.5-4.29h-3.84
				c0.67,4.56,4.6,8.06,9.35,8.06c4.75,0,8.67-3.5,9.35-8.06H972.18z"/>
			<path class="st0" d="M958.4-457.43c0.17-0.69,0.8-1.2,1.54-1.2c0.75,0,1.37,0.51,1.54,1.2h1.08c-0.19-1.28-1.29-2.26-2.62-2.26
				c-1.33,0-2.43,0.98-2.62,2.26H958.4z"/>
			<path class="st0" d="M971.85-457.43c0.17-0.69,0.8-1.2,1.54-1.2c0.75,0,1.37,0.51,1.54,1.2h1.08c-0.19-1.28-1.29-2.26-2.62-2.26
				c-1.33,0-2.43,0.98-2.62,2.26H971.85z"/>
		</g>
	</g>
</g>
<g>
	<g>
		<path class="st1" d="M136.35,10.21v59.24L51.1,117.13v33.23l84.56-44.41v47.68L51.1,193.71v18.78l85.25,40.46v60.69L12.66,251.8
			c-3.9-1.95-6.36-5.93-6.36-10.28V85.09c0-4.28,2.38-8.21,6.18-10.19L136.35,10.21z"/>
		<path class="st1" d="M152.24,10.21v56.35l86.69,44.79v31.79l-86.69,21.67v148.83l49.13-24.56l-1.44-82.36l72.94-23.44
			c4.75-1.53,7.98-5.95,7.98-10.95v-85.9c0-4.23-2.32-8.11-6.04-10.12L152.24,10.21z"/>
		<polygon class="st1" points="218.64,279.49 216.54,218.75 280.84,246.99 		"/>
	</g>
	<g>
		<g>
			<path class="st1" d="M369.39,257.15V64.77h122.57v29.96h-89.32v50.57h81.62v29.95h-81.62v51.94h90.69v29.96H369.39z"/>
			<path class="st1" d="M573.86,261c-17.59,0-32.06-3.85-43.42-11.54c-11.36-7.7-18.23-18.96-20.61-33.8l29.13-7.42
				c1.28,6.97,3.57,12.46,6.87,16.49c3.3,4.03,7.37,6.87,12.23,8.52c4.85,1.65,10.12,2.47,15.8,2.47c8.61,0,15.07-1.55,19.38-4.67
				c4.3-3.11,6.46-7.05,6.46-11.82c0-4.95-2.06-8.61-6.18-10.99c-4.12-2.38-10.4-4.4-18.83-6.05l-8.52-1.37
				c-9.34-1.83-17.87-4.35-25.56-7.56c-7.69-3.2-13.88-7.6-18.55-13.19c-4.67-5.59-7.01-12.68-7.01-21.3
				c0-13.19,4.9-23.36,14.7-30.51c9.8-7.14,22.67-10.72,38.61-10.72c15.21,0,27.76,3.39,37.65,10.17
				c9.89,6.78,16.3,15.85,19.24,27.21l-29.13,8.79c-1.47-7.69-4.67-13.14-9.62-16.35c-4.95-3.2-10.99-4.81-18.14-4.81
				c-7.33,0-12.96,1.28-16.9,3.85c-3.94,2.57-5.91,6.23-5.91,10.99c0,4.77,2.01,8.34,6.05,10.72c4.03,2.38,9.43,4.12,16.21,5.22
				l8.52,1.65c10.07,1.83,19.19,4.22,27.35,7.15c8.15,2.93,14.61,7.15,19.37,12.64c4.76,5.5,7.15,12.92,7.15,22.26
				c0,14.11-5.08,24.96-15.25,32.57C604.78,257.19,591.08,261,573.86,261z"/>
			<path class="st1" d="M708.52,259.35c-10.44,0-19.7-2.34-27.76-7.01c-8.06-4.67-14.29-11.27-18.69-19.79
				c-4.4-8.52-6.6-18.45-6.6-29.82v-81.35h31.33v78.87c0,10.99,2.7,19.15,8.11,24.46c5.4,5.32,13.05,7.97,22.95,7.97
				c11.17,0,20.02-3.66,26.52-10.99c6.5-7.33,9.76-17.86,9.76-31.6v-68.71h31.33v135.76h-30.78v-18.96h-4.67
				c-2.38,4.95-6.73,9.71-13.06,14.29C730.65,257.06,721.17,259.35,708.52,259.35z"/>
			<path class="st1" d="M820.1,257.15V121.39h31.06v18.96h4.67c2.38-5.13,6.69-9.98,12.92-14.57c6.23-4.58,15.66-6.87,28.31-6.87
				c10.44,0,19.69,2.38,27.76,7.15c8.06,4.77,14.33,11.36,18.83,19.79c4.49,8.43,6.73,18.41,6.73,29.96v81.35h-31.6v-78.87
				c0-10.99-2.71-19.19-8.11-24.6c-5.41-5.4-13.05-8.11-22.95-8.11c-11.18,0-19.97,3.71-26.38,11.13c-6.42,7.42-9.62,18-9.62,31.74
				v68.71H820.1z"/>
			<path class="st1" d="M1047.11,257.15V64.77h77.78c12.09,0,22.72,2.38,31.88,7.15c9.16,4.77,16.4,11.5,21.71,20.2
				c5.31,8.7,7.97,19.01,7.97,30.92v3.85c0,11.73-2.71,21.99-8.11,30.78c-5.41,8.79-12.74,15.57-21.99,20.34
				c-9.25,4.77-19.74,7.15-31.47,7.15h-44.52v72H1047.11z M1080.36,155.19h41.22c9.52,0,17.18-2.56,22.95-7.69
				c5.77-5.13,8.66-12.18,8.66-21.16v-2.75c0-8.98-2.84-16.03-8.52-21.16c-5.68-5.13-13.38-7.7-23.08-7.7h-41.22V155.19z"/>
			<path class="st1" d="M1269.16,261c-13.56,0-25.7-2.8-36.41-8.38s-19.15-13.56-25.28-23.91c-6.14-10.35-9.21-22.76-9.21-37.24
				v-4.4c0-14.47,3.07-26.93,9.21-37.38c6.14-10.44,14.57-18.41,25.28-23.91c10.72-5.5,22.85-8.24,36.41-8.24
				c13.56,0,25.65,2.75,36.28,8.24c10.62,5.5,19.01,13.47,25.15,23.91c6.14,10.44,9.21,22.91,9.21,37.38v4.4
				c0,14.47-3.07,26.89-9.21,37.24c-6.14,10.35-14.52,18.32-25.15,23.91C1294.81,258.2,1282.72,261,1269.16,261z M1269.16,232.97
				c11.54,0,20.98-3.71,28.31-11.13c7.33-7.42,10.99-17.82,10.99-31.19v-2.75c0-13.37-3.67-23.77-10.99-31.19
				c-7.33-7.42-16.76-11.13-28.31-11.13s-20.98,3.71-28.31,11.13c-7.33,7.42-10.99,17.82-10.99,31.19v2.75
				c0,13.38,3.66,23.77,10.99,31.19C1248.18,229.26,1257.62,232.97,1269.16,232.97z"/>
			<path class="st1" d="M1383.49,104.07c-5.68,0-10.58-1.88-14.7-5.63c-4.12-3.75-6.18-8.75-6.18-14.98
				c0-6.23,2.06-11.22,6.18-14.98c4.12-3.75,9.02-5.63,14.7-5.63c6.05,0,11.04,1.88,14.98,5.63c3.94,3.76,5.91,8.75,5.91,14.98
				c0,6.23-1.97,11.23-5.91,14.98C1394.53,102.2,1389.54,104.07,1383.49,104.07z M1367.83,257.15V121.39h31.61v135.76H1367.83z"/>
			<path class="st1" d="M1434.06,257.15V121.39h31.06v18.96h4.67c2.38-5.13,6.69-9.98,12.92-14.57c6.23-4.58,15.66-6.87,28.31-6.87
				c10.44,0,19.69,2.38,27.76,7.15c8.06,4.77,14.33,11.36,18.83,19.79c4.49,8.43,6.73,18.41,6.73,29.96v81.35h-31.6v-78.87
				c0-10.99-2.71-19.19-8.11-24.6c-5.41-5.4-13.05-8.11-22.95-8.11c-11.18,0-19.97,3.71-26.38,11.13c-6.42,7.42-9.62,18-9.62,31.74
				v68.71H1434.06z"/>
			<path class="st1" d="M1645.4,257.15c-8.8,0-15.8-2.61-21.02-7.83c-5.22-5.22-7.83-12.32-7.83-21.3V147.5h-35.45v-26.11h35.45
				v-43.7h31.6v43.7h39.03v26.11h-39.03v75.3c0,5.5,2.56,8.24,7.7,8.24h27.21v26.11H1645.4z"/>
		</g>
		<g>
			<path class="st1" d="M1283.28,189.5c-1.65,6.54-7.56,11.39-14.61,11.39c-7.05,0-12.96-4.85-14.61-11.39h-10.19
				c1.79,12.1,12.21,21.38,24.8,21.38c12.59,0,23.02-9.28,24.8-21.38H1283.28z"/>
			<path class="st1" d="M1246.72,178.94c0.46-1.83,2.12-3.19,4.1-3.19c1.98,0,3.63,1.36,4.1,3.19h2.86
				c-0.5-3.39-3.42-5.99-6.95-5.99c-3.53,0-6.45,2.6-6.95,5.99H1246.72z"/>
			<path class="st1" d="M1282.42,178.94c0.46-1.83,2.12-3.19,4.1-3.19c1.98,0,3.63,1.36,4.1,3.19h2.86
				c-0.5-3.39-3.42-5.99-6.95-5.99s-6.45,2.6-6.95,5.99H1282.42z"/>
		</g>
	</g>
</g>
</svg>
